<svg id="_x33_0" enable-background="new 0 0 64 64" height="512" viewBox="0 0 64 64" width="512" xmlns="http://www.w3.org/2000/svg"><g><g><g><path d="m7 5 5 8h-3v10h-4v-10h-3z" fill="#ccd1d9"/></g><g><path d="m57 5 5 8h-3v10h-4v-10h-3z" fill="#ccd1d9"/></g><g><path d="m8.32 26.95c-.19-.57-.72-.95-1.32-.95s-1.13.38-1.32.95l-1.68 5.05v12h6v-4-8z" fill="#ffeaa7"/></g><g><path d="m11 44c.55 0 1 .45 1 1v1 1c0 .55-.45 1-1 1h-2-4-2c-.55 0-1-.45-1-1v-2c0-.55.45-1 1-1h1 6z" fill="#fcd770"/></g><g><path d="m54 44h6 1c.55 0 1 .45 1 1v2c0 .55-.45 1-1 1h-2-4-2c-.55 0-1-.45-1-1v-1-1c0-.55.45-1 1-1z" fill="#fcd770"/></g><g><path d="m58.32 26.95c-.19-.57-.72-.95-1.32-.95s-1.13.38-1.32.95l-1.68 5.05v8 4h6v-12z" fill="#ffeaa7"/></g><g><path d="m42.25 46-1.03 3.3c-.13.42-.52.7-.96.7h-2.26-4-4-4-2.26c-.44 0-.83-.28-.96-.7l-1.03-3.3z" fill="#ccd1d9"/></g><g><path d="m46 29.71c0 2.01-.21 4.01-.64 5.97-.18.82-.39 1.62-.64 2.42l-2.47 7.9h-20.5l-2.47-7.9c-.25-.8-.46-1.6-.64-2.42-.43-1.96-.64-3.96-.64-5.97 0-2.84.43-5.64 1.26-8.32.82-2.68 2.06-5.23 3.66-7.57l1.24-1.82h.01 15.66.01l1.24 1.82c3.21 4.68 4.92 10.21 4.92 15.89z" fill="#e6e9ed"/></g><g><path d="m33.56 2.83 6.27 9.17h-15.66l6.27-9.17c.35-.52.93-.83 1.56-.83s1.21.31 1.56.83z" fill="#ff826e"/></g><g><circle cx="32" cy="26" fill="#69d6f4" r="10"/></g><g><path d="m38.58 32.74.2.6v.01c-1.78 1.64-4.16 2.65-6.78 2.65s-5-1.01-6.78-2.65v-.01l.2-.6c.94-2.83 3.59-4.74 6.58-4.74 1.5 0 2.9.48 4.06 1.31 1.15.83 2.05 2.01 2.52 3.43z" fill="#fcd770"/></g><g><circle cx="32" cy="24" fill="#f0d0b4" r="4"/></g><g><path d="m38.3 50.59c.46.93.7 1.95.7 2.98 0 2.15-1.04 4.17-2.79 5.42l-4.21 3.01-4.21-3.01c-.87-.63-1.57-1.44-2.05-2.37s-.74-1.98-.74-3.05c0-1.03.24-2.05.7-2.98l.3-.59h4l-.51 1.03c-.32.64-.49 1.34-.49 2.06 0 1.22.49 2.4 1.35 3.26l1.65 1.65 1.65-1.65c.86-.86 1.35-2.04 1.35-3.26 0-.72-.17-1.42-.49-2.06l-.51-1.03h4z" fill="#fc6e51"/></g><g><path d="m34.51 51.03c.32.64.49 1.34.49 2.06 0 1.22-.49 2.4-1.35 3.26l-1.65 1.65-1.65-1.65c-.86-.86-1.35-2.04-1.35-3.26 0-.72.17-1.42.49-2.06l.51-1.03h4z" fill="#ff826e"/></g><g><path d="m9.35 48.7c.43.86.65 1.8.65 2.75 0 1.63-.65 3.2-1.8 4.35l-1.2 1.2-1-4-2 1v-1.76c0-1.47.34-2.92 1-4.24h4z" fill="#ff826e"/></g><g><path d="m60 52.24v1.76l-2-1-1 4-1.2-1.2c-1.15-1.15-1.8-2.72-1.8-4.35 0-.95.22-1.89.65-2.75l.35-.7h4c.66 1.32 1 2.77 1 4.24z" fill="#ff826e"/></g></g><g><path d="m32 37c6.065 0 11-4.935 11-11s-4.935-11-11-11-11 4.935-11 11 4.935 11 11 11zm-5.616-3.979c.821-2.406 3.071-4.021 5.616-4.021s4.795 1.615 5.616 4.021c-1.541 1.235-3.492 1.979-5.616 1.979s-4.075-.744-5.616-1.979zm2.616-9.021c0-1.654 1.346-3 3-3s3 1.346 3 3-1.346 3-3 3-3-1.346-3-3zm3-7c4.963 0 9 4.038 9 9 0 2.061-.704 3.957-1.874 5.476-.815-1.681-2.179-2.986-3.834-3.743 1.039-.917 1.708-2.242 1.708-3.733 0-2.757-2.243-5-5-5s-5 2.243-5 5c0 1.491.669 2.816 1.708 3.733-1.655.756-3.019 2.062-3.834 3.742-1.17-1.518-1.874-3.414-1.874-5.475 0-4.962 4.037-9 9-9z"/><path d="m29 41h2v2h-2z"/><path d="m25 41h2v2h-2z"/><path d="m33 41h2v2h-2z"/><path d="m37 41h2v2h-2z"/><path d="m4 23h2v-11h-2.195l3.195-5.113 3.195 5.113h-2.195v11h2v-9h3.805l-6.805-10.887-6.805 10.887h3.805z"/><path d="m61 43v-11.162l-1.735-5.207c-.327-.975-1.237-1.631-2.265-1.631s-1.938.656-2.265 1.632l-1.735 5.206v6.544l-6.528-3.264c.337-1.782.528-3.59.528-5.412 0-5.897-1.761-11.587-5.091-16.455l-7.52-10.99c-.539-.79-1.433-1.261-2.389-1.261s-1.85.471-2.39 1.261l-7.52 10.99c-3.329 4.867-5.09 10.557-5.09 16.455 0 1.822.191 3.63.528 5.412l-6.528 3.264v-6.544l-1.735-5.207c-.327-.975-1.237-1.631-2.265-1.631s-1.938.656-2.265 1.632l-1.735 5.206v11.162c-1.103 0-2 .897-2 2v2c0 1.103.897 2 2 2h.529c-.34 1.045-.529 2.139-.529 3.236v3.382l2.332-1.166 1.126 4.504 2.447-2.447c1.351-1.351 2.095-3.147 2.095-5.057 0-.834-.15-1.668-.435-2.452h.435c1.103 0 2-.897 2-2h8.015l.812 2.598c.262.839 1.029 1.402 1.908 1.402h.713c-.293.825-.448 1.699-.448 2.572 0 2.469 1.199 4.799 3.208 6.234l4.792 3.423 4.792-3.423c2.009-1.435 3.208-3.765 3.208-6.234 0-.874-.154-1.748-.448-2.572h.712c.879 0 1.646-.563 1.909-1.403l.812-2.597h8.015c0 1.103.897 2 2 2h.435c-.285.784-.435 1.619-.435 2.452 0 1.91.744 3.706 2.095 5.057l2.447 2.447 1.126-4.504 2.332 1.166v-3.382c0-1.097-.189-2.191-.529-3.236h.529c1.103 0 2-.897 2-2v-2c0-1.103-.897-2-2-2zm-6 0v-10h4v10zm2.368-15.735 1.245 3.735h-3.225l1.245-3.734c.106-.318.628-.317.735-.001zm-26.107-23.875c.167-.244.443-.39.739-.39s.572.146.739.39l5.207 7.61h-11.892zm-7.52 10.99.944-1.38h14.629l.944 1.38c3.102 4.534 4.742 9.833 4.742 15.326 0 2.749-.416 5.473-1.235 8.095l-2.25 7.199h-19.03l-2.249-7.199c-.82-2.623-1.236-5.346-1.236-8.095 0-5.493 1.64-10.792 4.741-15.326zm-16.373 12.885 1.245 3.735h-3.226l1.245-3.734c.107-.318.629-.317.736-.001zm-2.368 5.735h4v10h-4zm3.456 16.148c.356.712.544 1.509.544 2.304 0 1.352-.518 2.624-1.458 3.591l-.874-3.496-1.668.835v-.146c0-1.107.234-2.211.658-3.236h2.724zm2.544-2.148h-8v-2h8zm2-2c0-1.103-.897-2-2-2v-2.382l6.982-3.491c.112.424.214.851.345 1.27l2.063 6.603zm24.402 6.041c.391.783.598 1.658.598 2.531 0 1.824-.886 3.546-2.37 4.606l-3.63 2.593-3.63-2.593c-1.484-1.06-2.37-2.782-2.37-4.606 0-.874.207-1.749.598-2.531l.02-.041h1.794c-.266.663-.412 1.375-.412 2.089 0 1.499.584 2.909 1.645 3.969l2.355 2.357 2.355-2.356c1.061-1.061 1.645-2.471 1.645-3.97 0-.714-.146-1.425-.412-2.089h1.794zm-4.02-.041.236.473c.25.5.382 1.058.382 1.616 0 .965-.376 1.873-1.059 2.555l-.941.941-.941-.941c-.683-.683-1.059-1.59-1.059-2.555 0-.558.132-1.116.382-1.616l.236-.473zm6.883-2h-16.53l-.625-2h17.78zm3.345-4 2.063-6.603c.131-.42.233-.846.345-1.27l6.982 3.491v2.382c-1.103 0-2 .897-2 2zm15.39 7.236v.146l-1.668-.834-.874 3.496c-.94-.968-1.458-2.24-1.458-3.592 0-.795.188-1.592.544-2.304l.074-.148h2.724c.424 1.025.658 2.129.658 3.236zm2-5.236h-8l-.001-2h.001 8z"/><path d="m54 23h2v-11h-2.195l3.195-5.113 3.195 5.113h-2.195v11h2v-9h3.805l-6.805-10.887-6.805 10.887h3.805z"/></g></g></svg>