<svg id="Capa_1" enable-background="new 0 0 512 512" height="512" viewBox="0 0 512 512" width="512" xmlns="http://www.w3.org/2000/svg"><g><g><g><g><g><path d="m492 409.065h-472c-11.046 0-20-8.954-20-20v-361.062c0-11.046 8.954-20 20-20h472c11.046 0 20 8.954 20 20v361.062c0 11.045-8.954 20-20 20z" fill="#e8e4d8"/><path d="m512 28.004v361.06c0 11.05-8.95 20-20 20h-262.89c139.04-40.06 240.74-208.25 240.74-360.18 0-13.84-.84-27.48-2.49-40.88h24.64c11.05 0 20 8.95 20 20z" fill="#d8d4c9"/><path d="m512 330.784v58.28c0 11.05-8.95 20-20 20h-95.66c48.51-9.14 89.99-38.16 115.66-78.28z" fill="#b5b1a4"/><path d="m512 28.004v50.4h-512v-50.4c0-11.05 8.95-20 20-20h472c11.05 0 20 8.95 20 20z" fill="#8f8b81"/><path d="m199.765 38.499h-158.446c-8.421 0-15.248-6.827-15.248-15.248 0-8.421 6.827-15.248 15.248-15.248h158.445c8.421 0 15.248 6.827 15.248 15.248.001 8.421-6.826 15.248-15.247 15.248z" fill="#b5b1a4"/><path d="m115.134 8.003h-42.954c-8.421 0-15.248 6.827-15.248 15.248 0 8.421 6.827 15.248 15.248 15.248h42.954c8.421 0 15.248-6.827 15.248-15.248 0-8.421-6.827-15.248-15.248-15.248z" fill="#d8d4c9"/><path d="m512 28.004v50.4h-43.45c.86-9.73 1.3-19.57 1.3-29.52 0-13.84-.84-27.48-2.49-40.88h24.64c11.05 0 20 8.95 20 20z" fill="#706c64"/></g><g><path d="m431.576 55.358h-281.53c-5.523 0-10-4.477-10-10v-4.309c0-5.523 4.477-10 10-10h281.53c5.523 0 10 4.477 10 10v4.309c0 5.523-4.477 10-10 10z" fill="#706c64"/><path d="m441.58 41.054v4.3c0 5.53-4.48 10-10 10h-55.76c16.78-2.82 31.51-11.69 41.86-24.3h13.9c5.52 0 10 4.47 10 10z" fill="#595751"/></g><g><circle cx="34.692" cy="43.204" fill="#fe255f" r="8.621"/><circle cx="33.044" cy="41.506" fill="#fc709b" r="6.258"/></g><g><circle cx="63.429" cy="43.204" fill="#ffc751" r="8.621"/><circle cx="61.78" cy="41.506" fill="#ffe059" r="6.258"/></g><g><circle cx="92.165" cy="43.204" fill="#29e088" r="8.621"/><circle cx="90.517" cy="41.506" fill="#79ff79" r="6.258"/></g></g><path d="m199.287 78.404h-147.001c-8.41 0-15.227 6.817-15.227 15.227 0 8.41 6.817 15.227 15.227 15.227h147.001c8.41 0 15.227-6.817 15.227-15.227 0-8.41-6.817-15.227-15.227-15.227z" fill="#f1eee0"/><path d="m129.288 78.404h-45.901c-8.41 0-15.227 6.817-15.227 15.227 0 8.41 6.817 15.227 15.227 15.227h45.902c8.41 0 15.227-6.817 15.227-15.227-.001-8.41-6.818-15.227-15.228-15.227z" fill="#f9f8f2"/></g></g><g><g fill="#595751"><path d="m110.868 362.023h-5.321c-5.523 0-10-4.477-10-10v-222.026c0-5.523 4.477-10 10-10h5.321c5.523 0 10 4.477 10 10v222.026c0 5.523-4.477 10-10 10z"/><path d="m52.703 362.023h-5.321c-5.523 0-10-4.477-10-10v-222.026c0-5.523 4.477-10 10-10h5.321c5.523 0 10 4.477 10 10v222.026c0 5.523-4.477 10-10 10z"/><path d="m231.011 362.023h-5.321c-5.523 0-10-4.477-10-10v-222.026c0-5.523 4.477-10 10-10h5.321c5.523 0 10 4.477 10 10v222.026c0 5.523-4.477 10-10 10z"/><path d="m271.815 362.023h-5.321c-5.523 0-10-4.477-10-10v-222.026c0-5.523 4.477-10 10-10h5.321c5.523 0 10 4.477 10 10v222.026c0 5.523-4.478 10-10 10z"/><path d="m312.618 362.023h-5.321c-5.523 0-10-4.477-10-10v-222.026c0-5.523 4.477-10 10-10h5.321c5.523 0 10 4.477 10 10v222.026c0 5.523-4.477 10-10 10z"/><path d="m464.618 362.023h-5.321c-5.523 0-10-4.477-10-10v-222.026c0-5.523 4.477-10 10-10h5.321c5.523 0 10 4.477 10 10v222.026c0 5.523-4.477 10-10 10z"/><path d="m170.902 362.023h-20.321c-5.523 0-10-4.477-10-10v-222.026c0-5.523 4.477-10 10-10h20.321c5.523 0 10 4.477 10 10v222.026c0 5.523-4.477 10-10 10z"/><path d="m411.825 362.023h-30.321c-5.523 0-10-4.477-10-10v-222.026c0-5.523 4.477-10 10-10h30.321c5.523 0 10 4.477 10 10v222.026c0 5.523-4.477 10-10 10z"/></g><g fill="#706c64"><path d="m120.868 244.849v-85.578c0-6.992-5.668-12.661-12.661-12.661-6.992 0-12.661 5.668-12.661 12.661v85.578c0 6.992 5.668 12.661 12.661 12.661 6.992-.001 12.661-5.669 12.661-12.661z"/><path d="m62.703 306.418v-85.578c0-6.992-5.668-12.661-12.661-12.661-6.992 0-12.661 5.668-12.661 12.661v85.578c0 6.992 5.668 12.661 12.661 12.661 6.993-.001 12.661-5.669 12.661-12.661z"/><path d="m241.011 244.849v-85.578c0-6.992-5.668-12.661-12.661-12.661-6.992 0-12.661 5.668-12.661 12.661v85.578c0 6.992 5.668 12.661 12.661 12.661 6.993-.001 12.661-5.669 12.661-12.661z"/><path d="m281.815 235.143v-85.578c0-6.992-5.668-12.661-12.661-12.661-6.992 0-12.661 5.668-12.661 12.661v85.578c0 6.992 5.668 12.661 12.661 12.661 6.992-.001 12.661-5.669 12.661-12.661z"/><path d="m322.618 238.284v-85.578c0-6.992-5.668-12.661-12.661-12.661-6.992 0-12.661 5.668-12.661 12.661v85.578c0 6.992 5.668 12.661 12.661 12.661 6.993-.001 12.661-5.669 12.661-12.661z"/><path d="m474.618 256.163v-85.578c0-6.992-5.668-12.661-12.661-12.661-6.992 0-12.661 5.668-12.661 12.661v85.578c0 6.992 5.668 12.661 12.661 12.661 6.993-.001 12.661-5.669 12.661-12.661z"/><path d="m180.902 248.663v-70.578c0-11.134-9.026-20.161-20.161-20.161-11.134 0-20.161 9.026-20.161 20.161v70.578c0 11.134 9.026 20.16 20.161 20.16 11.135 0 20.161-9.026 20.161-20.16z"/><path d="m421.825 286.012v-60.578c0-13.896-11.265-25.161-25.161-25.161-13.896 0-25.161 11.265-25.161 25.161v60.578c0 13.896 11.265 25.161 25.161 25.161 13.897 0 25.161-11.265 25.161-25.161z"/></g><g><path d="m346.953 328.92h38.108v62.409h-38.108z" fill="#ffc751" transform="matrix(-.707 .707 -.707 -.707 879.46 355.964)"/><path d="m330.469 351.528 44.131 44.131 26.944-26.944-10.615-10.615c-13.623 9.605-32.578 8.31-44.767-3.879-3.25-3.25-5.719-6.978-7.426-10.96z" fill="#ffaf40"/><circle cx="277.194" cy="271.31" fill="#8f8b81" r="111.713"/><circle cx="277.194" cy="271.31" fill="#b6f0ff" r="80.952"/><path d="m483.555 501.487 25.936-25.936c3.342-3.342 3.342-8.762 0-12.104l-99.338-99.338c-3.342-3.342-8.762-3.342-12.104 0l-25.936 25.936c-3.342 3.342-3.342 8.762 0 12.104l99.338 99.338c3.342 3.343 8.761 3.343 12.104 0z" fill="#8f8b81"/><path d="m425.362 379.319 34.882 34.882c5.668 5.668 5.668 14.857 0 20.525-5.668 5.668-14.857 5.668-20.525 0l-34.882-34.882c-5.668-5.668-5.668-14.857 0-20.525 5.667-5.668 14.857-5.668 20.525 0z" fill="#b5b1a4"/><path d="m334.433 214.068c-23.655-23.655-58.309-29.606-87.503-17.854-5.727 2.305-12.273.988-16.638-3.377-7.815-7.815-5.072-21.048 5.182-25.17 40.276-16.195 88.077-7.983 120.711 24.651 19.9 19.9 30.716 45.436 32.458 71.467.597 8.91-6.414 16.488-15.344 16.488-8.093 0-14.801-6.272-15.335-14.347-1.25-18.888-9.093-37.42-23.531-51.858z" fill="#b5b1a4"/><path d="m299.141 380.842c-21.518 4.293-44.055 2.208-64.582-6.254-10.169-4.192-12.842-17.351-5.065-25.129 4.393-4.393 10.997-5.711 16.738-3.338 14.813 6.123 31.075 7.66 46.617 4.61 7.485-1.469 14.929 2.67 17.402 9.886l.191.557c2.955 8.623-2.362 17.884-11.301 19.668z" fill="#706c64"/><path d="m275.778 159.642c18.905-.245 37.857 4.277 54.9 13.575 8.916 4.864 10.644 16.942 3.463 24.123l-.236.236c-4.734 4.734-12.038 5.878-17.913 2.669-12.421-6.786-26.244-10.069-40.025-9.856-8.22.127-14.983-6.446-15.286-14.661-.004-.103-.008-.207-.011-.31-.32-8.578 6.524-15.665 15.108-15.776z" fill="#d8d4c9"/><path d="m277.192 352.259c44.712 0 80.95-36.238 80.95-80.95 0-40.424-29.622-73.923-68.351-79.974 22.647 10.921 38.267 34.099 38.267 60.922 0 37.334-30.264 67.598-67.598 67.598-29.913 0-55.282-19.429-64.192-46.355 1.164 43.702 36.957 78.759 80.924 78.759z" fill="#73e1ff"/><path d="m390.263 420.303 81.188 81.188c3.341 3.341 8.763 3.341 12.104 0l25.939-25.939c3.341-3.341 3.341-8.763 0-12.104l-7.305-7.305c-39.495 6.573-81.46-5.374-111.926-35.84z" fill="#706c64"/></g></g></g></svg>