<svg height="511pt" viewBox="1 0 511 511.99906" width="511pt" xmlns="http://www.w3.org/2000/svg"><path d="m124.085938 414.894531h97.101562v97.105469h-79.449219c-9.75 0-17.652343-7.90625-17.652343-17.65625zm0 0" fill="#d78469"/><path d="m221.1875 414.894531h97.105469v97.105469h-97.105469zm0 0" fill="#935847"/><path d="m318.292969 414.894531h97.101562v97.105469h-97.101562zm0 0" fill="#d78469"/><path d="m415.394531 414.894531h97.105469v79.449219c0 9.75-7.90625 17.65625-17.65625 17.65625h-79.449219zm0 0" fill="#935847"/><path d="m221.1875 317.792969h97.105469v97.101562h-97.105469zm0 0" fill="#d78469"/><path d="m318.292969 317.792969h97.101562v97.101562h-97.101562zm0 0" fill="#935847"/><path d="m415.394531 317.792969h97.105469v97.101562h-97.105469zm0 0" fill="#d78469"/><path d="m318.292969 220.6875h97.101562v97.105469h-97.101562zm0 0" fill="#d78469"/><path d="m415.394531 220.6875h97.105469v97.105469h-97.105469zm0 0" fill="#935847"/><path d="m415.394531 123.585938h97.105469v97.101562h-97.105469zm0 0" fill="#d78469"/><g fill="#8ed7ae"><path d="m124.085938 379.585938h97.101562v35.308593h-97.101562c-9.753907 0-17.65625-7.902343-17.65625-17.652343 0-9.753907 7.902343-17.65625 17.65625-17.65625zm0 0"/><path d="m221.1875 282.480469h97.105469v35.3125h-97.105469c-9.75 0-17.65625-7.90625-17.65625-17.65625s7.90625-17.65625 17.65625-17.65625zm0 0"/><path d="m318.292969 185.378906h97.101562v35.308594h-97.101562c-9.753907 0-17.65625-7.902344-17.65625-17.652344 0-9.753906 7.902343-17.65625 17.65625-17.65625zm0 0"/><path d="m415.394531 88.273438h88.277344c4.875 0 8.828125 3.953124 8.828125 8.828124v26.484376h-97.105469c-9.75 0-17.65625-7.90625-17.65625-17.65625s7.90625-17.65625 17.65625-17.65625zm0 0"/></g><path d="m192.933594 62.699219 24.964844 24.96875-187.257813 187.261719c-6.898437 6.894531-18.074219 6.894531-24.96875 0-6.894531-6.894532-6.894531-18.074219 0-24.96875zm0 0" fill="#dc6c33"/><path d="m192.941406 62.675781s-48.246094-48.84375-101.210937-57.671875c0 0 83.863281-22.070312 132.414062 26.484375l24.964844 25.007813c48.550781 48.550781 26.484375 132.414062 26.484375 132.414062-8.828125-52.964844-57.699219-101.199218-57.699219-101.199218zm0 0" fill="#a5b4b4"/><path d="m318.292969 141.242188c-4.878907 0-8.828125-3.953126-8.828125-8.828126v-17.65625c0-4.875 3.949218-8.828124 8.828125-8.828124 4.875 0 8.824219 3.953124 8.824219 8.828124v17.65625c0 4.875-3.949219 8.828126-8.824219 8.828126zm0 0" fill="#23b972"/><path d="m344.773438 158.894531c-3.570313 0-6.789063-2.152343-8.152344-5.449219-1.367188-3.296874-.613282-7.09375 1.910156-9.617187l17.65625-17.65625c3.464844-3.34375 8.96875-3.296875 12.375.105469 3.40625 3.40625 3.453125 8.914062.109375 12.375l-17.65625 17.65625c-1.65625 1.65625-3.902344 2.585937-6.242187 2.585937zm0 0" fill="#935847"/><path d="m247.671875 238.34375c-4.101563.007812-7.664063-2.808594-8.609375-6.796875-.941406-3.988281.984375-8.101563 4.652344-9.929687l17.65625-8.828126c4.363281-2.179687 9.667968-.410156 11.847656 3.953126 2.179688 4.363281.40625 9.667968-3.957031 11.847656l-17.652344 8.828125c-1.222656.609375-2.574219.925781-3.9375.925781zm0 0" fill="#23b972"/></svg>